C:\Users\israe\Dropbox\PhDWork\ExperimentalData\subject7\055\P7S055W04_filtered35.mot
nRows=16
nColumns=28

name C:\Users\israe\Dropbox\PhDWork\ExperimentalData\subject7\055\P7S055W04_filtered35.mot
datacolumns 28
datarows 16
range 0.9500000000 0.9650000000
endheader
time	ground_force_1_vx	ground_force_1_vy	ground_force_1_vz	ground_force_1_px	ground_force_1_py	ground_force_1_pz	ground_moment_1_mx	ground_moment_1_my	ground_moment_1_mz	ground_force_2_vx	ground_force_2_vy	ground_force_2_vz	ground_force_2_px	ground_force_2_py	ground_force_2_pz	ground_moment_2_mx	ground_moment_2_my	ground_moment_2_mz	ground_force_3_vx	ground_force_3_vy	ground_force_3_vz	ground_force_3_px	ground_force_3_py	ground_force_3_pz	ground_moment_3_mx	ground_moment_3_my	ground_moment_3_mz
        0.9500000000	       -0.0000000000	        0.0000000000	        0.0000000000	        0.1988394961	        0.0000558755	       -0.3004071324	        0.0000000000	       -0.0000000000	        0.0000000000	        0.0000000000	        0.0000000000	       -0.0000000000	        0.2029003516	       -0.0000795827	        0.4543649445	        0.0000000000	        0.0000000000	        0.0000000000	        6.2419250318	      569.6076058365	       -8.0736752928	        0.2076431971	        0.0000770316	        1.3583900146	      118.2131370722	       -4.1115876612	      -27.2131231274	
        0.9510000000	       -0.0000000000	        0.0000000000	        0.0000000000	        0.1988394961	        0.0000558755	       -0.3004071324	        0.0000000000	       -0.0000000000	        0.0000000000	        0.0000000000	        0.0000000000	       -0.0000000000	        0.2029003516	       -0.0000795827	        0.4543649445	       -0.0000000000	        0.0000000000	        0.0000000000	        6.3001674520	      569.5752667075	       -8.2436010579	        0.2076431971	        0.0000770316	        1.3583900146	      118.3583169983	       -4.1292029664	      -27.2074901043	
        0.9520000000	       -0.0000000000	        0.0000000000	        0.0000000000	        0.1988394961	        0.0000558755	       -0.3004071324	        0.0000000000	       -0.0000000000	        0.0000000000	        0.0000000000	        0.0000000000	       -0.0000000000	        0.2029003516	       -0.0000795827	        0.4543649445	       -0.0000000000	        0.0000000000	        0.0000000000	        6.3441822581	      569.5793022709	       -8.4146984041	        0.2076431971	        0.0000770316	        1.3583900146	      118.5069567629	       -4.1444975426	      -27.2027125786	
        0.9530000000	       -0.0000000000	        0.0000000000	        0.0000000000	        0.1988394961	        0.0000558755	       -0.3004071324	        0.0000000000	       -0.0000000000	        0.0000000000	        0.0000000000	        0.0000000000	       -0.0000000000	        0.2029003516	       -0.0000795827	        0.4543649445	       -0.0000000000	        0.0000000000	        0.0000000000	        6.3734727231	      569.6246812764	       -8.5864512946	        0.2076431971	        0.0000770316	        1.3583900146	      118.6593104949	       -4.1574664823	      -27.1985236885	
        0.9540000000	       -0.0000000000	        0.0000000000	        0.0000000000	        0.1988394961	        0.0000558755	       -0.3004071324	        0.0000000000	       -0.0000000000	        0.0000000000	        0.0000000000	        0.0000000000	       -0.0000000000	        0.2029003516	       -0.0000795827	        0.4543649445	       -0.0000000000	        0.0000000000	        0.0000000000	        6.3890178945	      569.7139571189	       -8.7574843723	        0.2076431971	        0.0000770316	        1.3583900146	      118.8154934760	       -4.1684283019	      -27.1945034268	
        0.9550000000	       -0.0000000000	        0.0000000000	        0.0000000000	        0.1988394961	        0.0000558755	       -0.3004071324	        0.0000000000	       -0.0000000000	        0.0000000000	        0.0000000000	        0.0000000000	       -0.0000000000	        0.2029003516	       -0.0000795827	        0.4543649445	       -0.0000000000	        0.0000000000	        0.0000000000	        6.3928714485	      569.8457012740	       -8.9264348480	        0.2076431971	        0.0000770316	        1.3583900146	      118.9753846867	       -4.1779162186	      -27.1903619706	
        0.9560000000	       -0.0000000000	        0.0000000000	        0.0000000000	        0.1988394961	        0.0000558755	       -0.3004071324	        0.0000000000	       -0.0000000000	        0.0000000000	        0.0000000000	        0.0000000000	       -0.0000000000	        0.2029003516	       -0.0000795827	        0.4543649445	       -0.0000000000	        0.0000000000	        0.0000000000	        6.3880987774	      570.0147639000	       -9.0926072021	        0.2076431971	        0.0000770316	        1.3583900146	      119.1387532622	       -4.1864371824	      -27.1860544716	
        0.9570000000	        0.0000000000	        0.0000000000	       -0.0000000000	        0.1988394961	        0.0000558755	       -0.3004071324	       -0.0000000000	        0.0000000000	       -0.0000000000	        0.0000000000	        0.0000000000	       -0.0000000000	        0.2029003516	       -0.0000795827	        0.4543649445	       -0.0000000000	        0.0000000000	        0.0000000000	        6.3789438204	      570.2146293817	       -9.2555492413	        0.2076431971	        0.0000770316	        1.3583900146	      119.3053310681	       -4.1942936793	      -27.1816896084	
        0.9580000000	        0.0000000000	        0.0000000000	       -0.0000000000	        0.1988394961	        0.0000558755	       -0.3004071324	       -0.0000000000	        0.0000000000	       -0.0000000000	        0.0000000000	        0.0000000000	       -0.0000000000	        0.2029003516	       -0.0000795827	        0.4543649445	       -0.0000000000	        0.0000000000	        0.0000000000	        6.3701673759	      570.4396907069	       -9.4143221554	        0.2076431971	        0.0000770316	        1.3583900146	      119.4748323869	       -4.2015889939	      -27.1774254572	
        0.9590000000	        0.0000000000	        0.0000000000	       -0.0000000000	        0.1988394961	        0.0000558755	       -0.3004071324	       -0.0000000000	        0.0000000000	       -0.0000000000	        0.0000000000	        0.0000000000	       -0.0000000000	        0.2029003516	       -0.0000795827	        0.4543649445	       -0.0000000000	        0.0000000000	        0.0000000000	        6.3657594664	      570.6861783333	       -9.5674635325	        0.2076431971	        0.0000770316	        1.3583900146	      119.6471347783	       -4.2083395269	      -27.1734298212	
        0.9600000000	        0.0000000000	        0.0000000000	       -0.0000000000	        0.1988394961	        0.0000558755	       -0.3004071324	       -0.0000000000	        0.0000000000	       -0.0000000000	        0.0000000000	        0.0000000000	       -0.0000000000	        0.2029003516	       -0.0000795827	        0.4543649445	       -0.0000000000	        0.0000000000	        0.0000000000	        6.3681048416	      570.9524187326	       -9.7136823629	        0.2076431971	        0.0000770316	        1.3583900146	      119.8224915935	       -4.2145565200	      -27.1698142537	
        0.9610000000	        0.0000000000	        0.0000000000	       -0.0000000000	        0.1988394961	        0.0000558755	       -0.3004071324	       -0.0000000000	        0.0000000000	       -0.0000000000	       -0.0000000000	        0.0000000000	       -0.0000000000	        0.2029003516	       -0.0000795827	        0.4543649445	       -0.0000000000	        0.0000000000	        0.0000000000	        6.3781000023	      571.2387026934	       -9.8527787346	        0.2076431971	        0.0000770316	        1.3583900146	      120.0014002615	       -4.2202896696	      -27.1665795866	
        0.9620000000	        0.0000000000	        0.0000000000	       -0.0000000000	        0.1988394961	        0.0000558755	       -0.3004071324	       -0.0000000000	        0.0000000000	       -0.0000000000	       -0.0000000000	        0.0000000000	       -0.0000000000	        0.2029003516	       -0.0000795827	        0.4543649445	       -0.0000000000	        0.0000000000	        0.0000000000	        6.3957534674	      571.5463873051	       -9.9860208072	        0.2076431971	        0.0000770316	        1.3583900146	      120.1842069914	       -4.2256600407	      -27.1637012757	
        0.9630000000	        0.0000000000	        0.0000000000	       -0.0000000000	        0.1988394961	        0.0000558755	       -0.3004071324	       -0.0000000000	        0.0000000000	       -0.0000000000	       -0.0000000000	        0.0000000000	       -0.0000000000	        0.2029003516	       -0.0000795827	        0.4543649445	       -0.0000000000	       -0.0000000000	        0.0000000000	        6.4205497089	      571.8766220436	      -10.1156260970	        0.2076431971	        0.0000770316	        1.3583900146	      120.3709203469	       -4.2308140619	      -27.1612514448	
        0.9640000000	        0.0000000000	        0.0000000000	       -0.0000000000	        0.1988394961	        0.0000558755	       -0.3004071324	       -0.0000000000	        0.0000000000	       -0.0000000000	       -0.0000000000	        0.0000000000	       -0.0000000000	        0.2029003516	       -0.0000795827	        0.4543649445	       -0.0000000000	       -0.0000000000	        0.0000000000	        6.4514473816	      572.2299874013	      -10.2439220747	        0.2076431971	        0.0000770316	        1.3583900146	      120.5613139663	       -4.2357977902	      -27.1593641840	
        0.9650000000	        0.0000000000	        0.0000000000	       -0.0000000000	        0.1988394961	        0.0000558755	       -0.3004071324	       -0.0000000000	        0.0000000000	       -0.0000000000	       -0.0000000000	        0.0000000000	       -0.0000000000	        0.2029003516	       -0.0000795827	        0.4543649445	       -0.0000000000	       -0.0000000000	       -0.0000000000	        6.4867093387	      572.6071681712	      -10.3729473912	        0.2076431971	        0.0000770316	        1.3583900146	      120.7550562970	       -4.2405076652	      -27.1581207719	
